<?xml version="1.0" encoding="UTF-8" standalone="no"?>
<svg xmlns="http://www.w3.org/2000/svg" viewBox="0 0 700 700" width="32" height="32">
  <path style="fill:#ff4906;stroke-width:0.74130237"
    d="m 113.85176,259.73689 c -2.10148,0.0154 -4.20017,0.18496 -6.27211,0.50928 -11.475364,1.71241 -22.076392,8.39138 -28.585028,17.99866 -9.71106,13.87718 -9.866922,33.25458 -0.563577,47.37639 6.923763,10.66735 18.658797,17.93195 31.357305,19.11062 13.78081,1.53449 27.75408,-4.12144 36.7683,-14.61828 8.20622,11.08246 22.26885,16.78329 35.88657,14.29251 11.03058,-1.83843 20.88221,-9.05842 26.03427,-18.97705 5.27066,-9.87415 5.56738,-22.05445 0.94907,-32.23253 -4.65538,-10.34117 -14.29251,-18.22792 -25.41205,-20.58526 -11.67551,-2.57973 -23.88397,0.70388 -32.7277,8.70994 -4.44782,-7.63541 -11.05356,-13.90666 -19.1041,-17.61317 -5.69877,-2.67981 -12.02653,-4.01733 -18.33095,-3.97111 z m 0.28124,17.28089 c 7.89608,2.3e-4 15.67225,3.87128 20.37026,10.31598 6.61983,8.77702 6.59811,21.29747 -0.0217,30.05966 -6.52346,8.96235 -18.69564,12.62435 -29.08128,8.68062 -10.548716,-3.81771 -17.525052,-14.71572 -16.450164,-25.90938 0.874738,-10.84526 9.088816,-20.22951 19.733914,-22.51272 1.79859,-0.4281 3.62684,-0.63421 5.44901,-0.63416 z m 62.17277,12.01865 c 3.6603,0.0492 7.30175,1.16886 10.35615,3.21207 5.7525,3.70651 9.244,10.73347 8.68062,17.55345 -0.67459,9.37006 -8.5997,17.36112 -18.02907,17.78366 -8.38413,0.69682 -16.50164,-4.72226 -19.34082,-12.58007 -2.046,-5.35961 -1.47485,-11.46693 1.46812,-16.38176 2.6168,-4.5516 7.16064,-7.86521 12.26081,-9.06612 1.27133,-0.3132 2.57085,-0.48341 3.87229,-0.51688 0.24402,-0.006 0.48787,-0.008 0.7319,-0.004 z"/>
  <path style="fill:#ff4906;stroke-width:0.74130237"
    d="m 181.73957,352.21907 c -16.07144,0.0297 -32.15757,0.008 -48.23642,0.008 -13.00244,0.33359 -24.55234,9.36279 -28.58503,21.64617 -7.242519,-3.54344 -14.35931,-7.3394 -21.609248,-10.88283 -4.077163,-1.9422 -7.271959,-4.42543 -12.008881,-4.48473 -6.264005,-0.36324 -12.26825,3.49169 -14.699722,9.2442 -1.571561,3.4022 -1.097461,7.73916 -1.638611,11.47533 v 33.81793 c 0.615281,4.79623 -0.05936,8.82157 2.34987,13.047 3.788055,6.99789 13.016836,9.9034 20.125926,6.27102 9.177322,-4.57383 18.348246,-9.19905 27.540396,-13.75065 2.20908,6.07127 5.89231,11.51273 11.16297,15.32303 5.20394,3.92148 11.34192,5.82666 17.79125,6.33074 h 48.0225 c 7.7392,-0.51149 15.13686,-3.21014 20.76335,-8.6513 6.22694,-5.77474 9.84427,-13.95134 9.95546,-22.45407 0.0148,-8.4212 -0.007,-16.84209 0.008,-25.26328 0.0371,-6.40485 -1.83131,-12.7586 -5.48593,-18.03668 -5.58942,-8.28776 -15.41825,-13.71402 -25.45549,-13.63988 z m -0.71995,16.32421 c 7.84298,0.0593 14.65576,6.4857 15.23398,14.29902 0.26687,6.02679 0.0377,12.09804 0.11185,18.13224 -0.0815,3.89184 0.37733,7.99903 -0.75687,11.69071 -1.86808,6.34555 -7.96913,10.99385 -14.58896,11.09021 -15.0855,0.0371 -30.20706,0.007 -45.29256,0.0141 -6.30849,0.10378 -12.23171,-3.73536 -14.67801,-9.54717 -1.62345,-3.68427 -1.17932,-7.13955 -1.2238,-11.02397 0.0371,-6.68655 -0.0594,-13.37314 0.0369,-20.05969 0.36325,-7.87263 7.22038,-14.49259 15.10042,-14.58896 15.33755,-0.0148 30.71948,10e-4 46.05703,-0.007 z m -105.546546,9.76543 c 1.202619,0.0224 2.247261,0.50186 3.343462,1.02726 8.213631,4.16612 16.479745,8.22914 24.700784,12.38785 0,3.02451 -1.8e-4,6.04811 -0.008,9.07263 -8.650994,4.35144 -17.265087,8.83634 -25.923499,13.17296 -2.008929,1.17125 -4.573705,0.0447 -5.426203,-2.00131 -0.400303,-1.36398 -0.333933,-2.91337 -0.356173,-4.32184 0.0593,-8.41378 -0.0077,-16.8419 0.02932,-25.25568 -0.126021,-1.97928 1.320387,-3.49152 3.114339,-4.06233 0.178838,-0.0167 0.353769,-0.0227 0.525571,-0.0196 z"/>
</svg>
